<?xml version="1.0" standalone="no"?><!DOCTYPE svg PUBLIC "-//W3C//DTD SVG 1.1//EN" "http://www.w3.org/Graphics/SVG/1.1/DTD/svg11.dtd"><svg class="icon" width="128px" height="128.00px" viewBox="0 0 1024 1024" version="1.1" xmlns="http://www.w3.org/2000/svg"><path d="M223.80687 897.345834c-107.414082-90.059138-121.892731-250.723553-32.066805-358.759537l46.467716-56.010021 278.592523-335.593699c64.075308-77.135244 178.369178-87.590966 255.037995-23.243575 76.824293 64.34739 87.105105 179.185424 22.971494 256.359537l-116.14014 139.75297-46.934143 56.612488-162.024825 195.10222a108.3275 108.3275 0 0 1-153.046119 14.012223 109.551869 109.551869 0 0 1-13.701271-153.784627l255.348946-307.666426a36.148036 36.148036 0 0 1 51.034808-4.664263c15.353198 12.923894 17.452116 35.914823 4.586525 51.345758l-255.387816 307.54982a36.536724 36.536724 0 0 0 4.586525 51.287455c15.372632 12.826722 38.169216 10.786107 51.034808-4.60596l324.982501-391.525982c38.519036-46.35111 32.338888-115.207288-13.681837-153.784627a108.269197 108.269197 0 0 0-153.046119 13.953919l-69.711292 83.878991-23.146404 27.966141-232.221978 279.622547c-35.584437 42.833479-47.420004 97.211008-38.635642 148.09034 0.544164 2.701385 0.991156 5.383336 1.632492 8.104156 1.243803 5.888632 2.604213 11.738394 4.547656 17.393813 2.312697 7.443386 5.247296 14.634124 8.531714 21.708256 1.729664 3.653672 3.711976 7.113001 5.713722 10.630632 3.653672 6.782615 7.890378 13.351452 12.593509 19.648206 1.943443 2.54591 3.848017 5.169558 5.966369 7.559993a173.160752 173.160752 0 0 0 22.582805 23.243576c76.688252 64.34739 190.962687 53.930537 255.05743-23.243576l301.816664-363.559841a36.206339 36.206339 0 0 1 51.034807-4.664262 36.536724 36.536724 0 0 1 4.586525 51.287455l-46.428848 55.951717-255.446119 307.54982c-89.767622 108.055418-249.635225 122.650674-357.088176 32.494363z" fill="#8656D2" /></svg>