<?xml version="1.0" standalone="no"?><!DOCTYPE svg PUBLIC "-//W3C//DTD SVG 1.1//EN" "http://www.w3.org/Graphics/SVG/1.1/DTD/svg11.dtd"><svg class="icon" width="128px" height="128.00px" viewBox="0 0 1024 1024" version="1.1" xmlns="http://www.w3.org/2000/svg"><path d="M512 512m-512 0a512 512 0 1 0 1024 0 512 512 0 1 0-1024 0Z" fill="#F15A59" /><path d="M512 236.307692c23.630769 0 39.384615 15.753846 39.384615 39.384616v315.076923c0 23.630769-15.753846 39.384615-39.384615 39.384615s-39.384615-15.753846-39.384615-39.384615v-315.076923c0-23.630769 15.753846-39.384615 39.384615-39.384616z" fill="#FFFFFF" /><path d="M512 748.307692m-39.384615 0a39.384615 39.384615 0 1 0 78.76923 0 39.384615 39.384615 0 1 0-78.76923 0Z" fill="#FFFFFF" /></svg>