<?xml version="1.0" standalone="no"?><!DOCTYPE svg PUBLIC "-//W3C//DTD SVG 1.1//EN" "http://www.w3.org/Graphics/SVG/1.1/DTD/svg11.dtd"><svg class="icon" width="128px" height="128.00px" viewBox="0 0 1024 1024" version="1.1" xmlns="http://www.w3.org/2000/svg"><path d="M607.2 329.8c-76.6-76.6-200.8-76.6-277.4 0-76.6 76.6-76.6 200.8 0 277.4 76.6 76.6 200.8 76.6 277.4 0 76.7-76.5 76.7-200.7 0-277.4zM287.1 650C187 549.8 187 387.3 287.1 287.1 387.3 187 549.7 187 650 287.1c100.2 100.2 100.2 262.6 0 362.8-100.3 100.2-262.7 100.2-362.9 0.1z m514.6 151.7c-13.7 13.7-35.9 13.7-49.6 0l-84.8-84.9c-13.7-13.7-13.7-35.9 0-49.5 13.7-13.7 35.9-13.7 49.5 0l84.9 84.8c13.7 13.8 13.7 36 0 49.6z" fill="#8656d2" /></svg>