<?xml version="1.0" standalone="no"?><!DOCTYPE svg PUBLIC "-//W3C//DTD SVG 1.1//EN" "http://www.w3.org/Graphics/SVG/1.1/DTD/svg11.dtd"><svg class="icon" width="16px" height="16.00px" viewBox="0 0 1024 1024" version="1.1" xmlns="http://www.w3.org/2000/svg"><path d="M0 512a512 512 0 1 0 1024 0A512 512 0 1 0 0 512z" fill="#EDEEF5" /><path d="M666.947 416c96-130.526 77.474 85.895-11.79 94.316-140.63 46.316 11.79-94.316 11.79-94.316z" fill="#EFE7E6" /><path d="M387.368 514.526c4.21 16 35.369 81.685-34.526 184.421s160.842 158.316 160.842 158.316 218.948-74.105 230.737-110.316c72.421-61.473-134.737 0.842-95.158-225.684-94.316-59.79-261.895-6.737-261.895-6.737z" fill="#EDE7E6" /><path d="M512 1024c186.408 0 349.507-99.645 439.047-248.55-0.014-0.235-0.014-0.498-0.034-0.713-25.822-39.296-203.23-98.81-272.842-98.81-138.099 241.409-324.487 41.547-321.118 2.25C260.6 671.55 144.37 741.202 79.872 786.467 170.739 929.213 330.247 1024 512 1024z" fill="#586ABA" /><path d="M392.845 554.105c5.686 20.21 152.691 157.474 285.899 123.79-38.987-48-25.176-122.948-22.744-167.58 13.804-30.315-259.099 16.843-263.155 43.79z" fill="#E3DCDB" /><path d="M530.526 168.421c54.737 10.105 131.369 15.158 141.474 91.79 106.947 446.315-371.368 508.631-309.895 40.42 31.158-165.894 168.421-132.21 168.421-132.21z" fill="#F7EDEB" /><path d="M415.057 229.053c29.649 20.21 89.506 86.454 234.63 53.894 12.423 48.283 6.212 48.283 39.809 99.369 24.562 8.42 95.717-233.263-112.66-266.105-243.942-37.895-275.281 176.842-212.602 254.315 15.246-16 3.389-103.579 50.823-141.473z" fill="#586ABA" /></svg>