<?xml version="1.0" standalone="no"?><!DOCTYPE svg PUBLIC "-//W3C//DTD SVG 1.1//EN" "http://www.w3.org/Graphics/SVG/1.1/DTD/svg11.dtd"><svg class="icon" width="32px" height="32.00px" viewBox="0 0 1024 1024" version="1.1" xmlns="http://www.w3.org/2000/svg"><path d="M0 512.00087c0 282.62352 229.37561 511.99913 511.99913 511.99913s511.99913-229.37561 511.999129-511.99913S794.622649 0.001741 511.99913 0.001741 0 229.377351 0 512.00087z" fill="#FFFFFF" /><path d="M934.398412 801.280379c-11.77598-112.639809-107.007818-200.703659-222.719622-200.703659h-104.959821c-13.311977 0-24.063959-10.751982-24.06396-24.063959v-11.263981c0-10.239983 6.655989-18.943968 16.383973-22.527962 102.399826-38.399935 172.543707-206.847648 158.207731-325.631446-13.311977-112.127809-104.447822-202.239656-217.087631-215.039635-8.703985-1.535997-17.91997-2.047997-26.623955-2.047996h-1.023998C375.807361-0.510258 264.70355 110.593553 264.70355 247.29732c0 106.495819 67.071886 260.607557 161.279726 295.423498 9.215984 3.583994 14.847975 12.799978 14.847975 22.527962v11.263981c0 13.311977-10.751982 24.063959-24.06396 24.063959H312.319469c-115.711803 0-211.455641 88.06385-222.719621 200.703659 92.159843 134.655771 247.29558 222.719621 422.399282 222.719621s330.239439-88.06385 422.399282-222.719621z" fill="#FFDBCA" /><path d="M591.358995 116.737542c65.535889 17.91997 127.487783 58.367901 166.911716 111.615811-0.511999-4.095993-0.511999-7.679987-1.023998-11.77598-13.311977-112.127809-104.447822-202.239656-217.087631-215.039635-8.703985-1.023998-17.91997-1.535997-26.623955-1.535997h-1.023998C390.143337 0.001741 289.279508 88.065591 268.799543 204.289394c3.071995 4.607992 6.14399 8.703985 9.727984 13.311977 1.023998-1.535997 2.559996-3.071995 3.583993-4.607992 35.32794-41.983929 94.20784-51.711912 144.383755-29.69595 62.463894 27.647953 135.16777-0.511999 162.815723-62.975893 1.023998-1.023998 1.535997-2.559996 2.047997-3.583994z" fill="#6C797A" /><path d="M934.398412 801.280379c-11.77598-112.639809-107.007818-200.703659-222.719622-200.703659h-23.039961L582.655009 706.56054H441.34325l-52.735911-35.839939L327.679443 600.064721h-15.359974c-115.711803 0-211.455641 88.06385-222.719621 200.703658 92.159843 134.655771 247.29558 222.719621 422.399282 222.719622s330.239439-87.551851 422.399282-222.207622z" fill="#E7ECED" /><path d="M759.294709 960.512108c12.287979-6.655989 24.063959-13.823976 35.32794-21.503964v-109.055814h-35.32794v130.559778z m-494.591159 0v-130.559778h-35.32794v109.055814c11.77598 7.167988 23.55196 14.847975 35.32794 21.503964z" fill="#CCD5D6" /><path d="M459.263219 670.720601h105.98382v105.983819H459.263219V670.720601z" fill="#38454F" /><path d="M440.831251 1018.880009c23.55196 3.071995 47.10392 5.119991 71.167879 5.119991 24.575958 0 48.127918-2.047997 71.679878-5.119991l-36.351938-242.175589H476.67119l-35.839939 242.175589z" fill="#546A79" /><path d="M459.263219 685.056576l-70.65588-84.991855H302.591486c-1.023998 0-1.535997 1.023998-1.535998 1.535997v0.511999l69.631882 174.079704 88.06385-58.8799v-32.255945z m262.143555-84.991855h-85.503855l-70.65588 84.991855v32.767944l88.06385 58.8799 69.631882-174.079704c0.511999-1.023998 0-2.047997-1.023998-2.047996 0-0.511999-0.511999-0.511999-0.511999-0.511999z" fill="#FFFFFF" /></svg>