<?xml version="1.0" standalone="no"?><!DOCTYPE svg PUBLIC "-//W3C//DTD SVG 1.1//EN" "http://www.w3.org/Graphics/SVG/1.1/DTD/svg11.dtd"><svg class="icon" width="16px" height="16.00px" viewBox="0 0 1024 1024" version="1.1" xmlns="http://www.w3.org/2000/svg"><path d="M231.296 136.490667A42.666667 42.666667 0 0 1 282.453333 204.8a384 384 0 1 0 463.317334 3.114667 42.666667 42.666667 0 0 1 51.968-67.669334A468.565333 468.565333 0 0 1 981.333333 512.682667c0 259.2-210.133333 469.333333-469.333333 469.333333s-469.333333-210.133333-469.333333-469.333333c0-149.930667 70.826667-288.170667 188.629333-376.192zM512 42.666667a42.666667 42.666667 0 0 1 42.666667 42.666666v341.333334a42.666667 42.666667 0 0 1-85.333334 0V85.333333a42.666667 42.666667 0 0 1 42.666667-42.666666z" fill="#8656D2" /></svg>