<?xml version="1.0" standalone="no"?><!DOCTYPE svg PUBLIC "-//W3C//DTD SVG 1.1//EN" "http://www.w3.org/Graphics/SVG/1.1/DTD/svg11.dtd"><svg class="icon" width="128px" height="128.00px" viewBox="0 0 1024 1024" version="1.1" xmlns="http://www.w3.org/2000/svg"><path d="M515.68 510.61m-500 0a500 500 0 1 0 1000 0 500 500 0 1 0-1000 0Z" fill="#C0E6FF" /><path d="M590.75 137.59s69.44 16.91 91.56 0l-22.12 16.91a17.36 17.36 0 0 0 16.92 0.73s-12.18 13.6-40.58 13.6-54.43-13.6-54.43-13.6z" fill="#3C3C3B" /><path d="M431.29 644.21c-178.45 78.23-232 119.95-253.14 138.67-32.61 28.86-50.65 136.4-69.88 227.73h807.46c-19.23-91.33-37.27-198.87-69.88-227.73-21.16-18.72-72.73-59.36-251.18-137.59z" fill="#FFFFFF" /><path d="M598.64 496.08v197.8c-47.65 58.37-125.64 56.35-173.28 0v-197.8c0-106.8 173.28-106.8 173.28 0z" fill="#FFDECC" /><path d="M598.64 496.08v132.44c-32.79 23.89-64.39 37.28-86.64 37.28s-53.86-13.39-86.64-37.28V496.08c0-106.8 173.28-106.8 173.28 0zM288.92 386c15.25-5 34.67 12.29 43.36 38.69s3.37 51.86-11.9 56.89-34.67-12.3-43.36-38.69-3.37-51.89 11.9-56.89zM735.08 386c-15.26-5-34.68 12.3-43.37 38.69s-3.36 51.86 11.9 56.88 34.68-12.29 43.37-38.68 3.37-51.89-11.9-56.89z" fill="#F7C5AA" /><path d="M419.15 784.39l94.81-47.58 84.68 81.23v192.57H425.36l-6.21-226.22z" fill="#1697D6" /><path d="M425.36 989V646.83q-22.77 10-42.86 19.27l-64.63 87.06 57.48 15.62L317.87 787zM648.65 768.78l57.48-15.62-64.45-86.81q-20.13-9.24-43-19.31V989l107.45-202z" fill="#F2F2F2" /><path d="M425.36 693.88V818l88.81-81.13-0.21-0.1c-32.06 0.39-64.28-14.12-88.6-42.89z" fill="#18A5EB" /><path d="M510.09 736.78l-0.26 0.13L598.64 818V693.88c-24.31 29.78-56.51 43.75-88.55 42.9z" fill="#18A5EB" /><path d="M496.05 833.31l-12.62-60.93 29.39-30.2 29.36 30.2-11.47 59.69-34.66 1.24z" fill="#3C3C3B" /><path d="M544.76 1010.61c-3-60.2-9.49-120.37-16.24-183.91l-30.58 1.61c-0.12 63.59-6.82 123.3-17.22 182.3z" fill="#575756" /><path d="M512.38 155.23c-290.8 0-186.22 351.38-167.23 379.35 21 30.85 120.25 112.6 167.23 112.6s146.28-81.75 167.22-112.6c19.01-27.97 123.59-379.35-167.22-379.35z" fill="#FFDECC" /><path d="M419.15 489.57c24.39 19.13 162.08 18.08 186.47 0-21.19 100.69-158.36 103.79-186.47 0z" fill="#DBA489" /><path d="M377.46 282.68s167.3 63.14 266.86 0V251H403.81l-32.2 8.66z" fill="#F4C29D" /><path d="M379.46 272.82c-16.87 92.16-59.11 83.56-55.76 191.7-13.57-84.28-33.84-196.45 23.47-270.34 45.79-59 197.45-101.26 295.65-30.43 108.47 23.18 74.55 244 60 285.75-10.16-67.61-32.9-95.77-61.61-175.26-38.95 27.93-215.85 22.12-261.75-1.42z" fill="#3C3C3B" /><path d="M571.74 233.73c17.42 5.35 41.37 5 51.15-13-37.69 20.41-75.5-34-114.21-13 19.23 1.55 35 13.58 52.12 21.65-26.33-10.5-52.8-20.11-81.73-13.65 55.18 9.52 116.14 69.84 172.11 31.1-28.08 6.07-53.85-2.94-79.44-13.1z" fill="#DADADA" /><path d="M363.81 433.79a38.87 15.42 0 1 0 77.74 0 38.87 15.42 0 1 0-77.74 0Z" fill="#FF9C71" /><path d="M585.53 433.79a38.87 15.42 0 1 0 77.74 0 38.87 15.42 0 1 0-77.74 0Z" fill="#FF9C71" /></svg>